<mxfile host="app.diagrams.net" modified="2023-07-24T14:52:39.666Z" agent="Mozilla/5.0 (X11; Linux x86_64) AppleWebKit/537.36 (KHTML, like Gecko) Chrome/115.0.0.0 Safari/537.36" etag="yrPOL4L19M64EKag_R-q" version="21.6.5" type="google">
  <diagram name="Page-1" id="SFV0DPMBpy5tl9tK5UpT">
    <mxGraphModel grid="1" page="1" gridSize="10" guides="1" tooltips="1" connect="1" arrows="1" fold="1" pageScale="1" pageWidth="827" pageHeight="1169" math="0" shadow="0">
      <root>
        <mxCell id="0" />
        <mxCell id="1" parent="0" />
        <mxCell id="krKL_mxPOFj_XPniPA5U-5" value="Workflow&lt;br&gt;(Dev Mode)" style="rounded=0;whiteSpace=wrap;html=1;fillColor=#dae8fc;strokeColor=#6c8ebf;" vertex="1" parent="1">
          <mxGeometry x="269" y="90" width="130" height="60" as="geometry" />
        </mxCell>
        <mxCell id="krKL_mxPOFj_XPniPA5U-9" value="Embedded&lt;br&gt;Job Service" style="rounded=0;whiteSpace=wrap;html=1;fillColor=#d5e8d4;strokeColor=#82b366;" vertex="1" parent="1">
          <mxGeometry x="269" y="280" width="130" height="60" as="geometry" />
        </mxCell>
        <mxCell id="krKL_mxPOFj_XPniPA5U-17" value="" style="whiteSpace=wrap;html=1;aspect=fixed;fillColor=#ffe6cc;strokeColor=#d79b00;dashed=1;dashPattern=12 12;" vertex="1" parent="1">
          <mxGeometry x="269" y="150" width="130" height="130" as="geometry" />
        </mxCell>
        <mxCell id="krKL_mxPOFj_XPniPA5U-19" value="" style="rounded=0;whiteSpace=wrap;html=1;fillColor=#ffe6cc;strokeColor=#d79b00;dashed=1;dashPattern=12 12;" vertex="1" parent="1">
          <mxGeometry x="299" y="220" width="100" height="60" as="geometry" />
        </mxCell>
        <mxCell id="krKL_mxPOFj_XPniPA5U-21" value="" style="rounded=0;whiteSpace=wrap;html=1;direction=west;fillColor=#ffe6cc;strokeColor=#d79b00;dashed=1;dashPattern=12 12;" vertex="1" parent="1">
          <mxGeometry x="269" y="150" width="30" height="130" as="geometry" />
        </mxCell>
        <mxCell id="krKL_mxPOFj_XPniPA5U-23" value="" style="rounded=0;whiteSpace=wrap;html=1;fillColor=#ffe6cc;strokeColor=#d79b00;dashed=1;dashPattern=12 12;" vertex="1" parent="1">
          <mxGeometry x="299" y="150" width="30" height="70" as="geometry" />
        </mxCell>
        <mxCell id="krKL_mxPOFj_XPniPA5U-25" value="" style="rounded=0;whiteSpace=wrap;html=1;fillColor=#ffe6cc;strokeColor=#d79b00;dashed=1;dashPattern=12 12;" vertex="1" parent="1">
          <mxGeometry x="329" y="190" width="70" height="30" as="geometry" />
        </mxCell>
        <mxCell id="krKL_mxPOFj_XPniPA5U-26" value="" style="rounded=0;whiteSpace=wrap;html=1;fillColor=#ffe6cc;strokeColor=#d79b00;dashed=1;dashPattern=12 12;" vertex="1" parent="1">
          <mxGeometry x="329" y="150" width="70" height="40" as="geometry" />
        </mxCell>
        <mxCell id="krKL_mxPOFj_XPniPA5U-27" value="Data Index" style="text;html=1;align=center;verticalAlign=middle;resizable=0;points=[];autosize=1;rotation=90;dashed=1;dashPattern=12 12;" vertex="1" parent="1">
          <mxGeometry x="244" y="200" width="80" height="30" as="geometry" />
        </mxCell>
        <mxCell id="krKL_mxPOFj_XPniPA5U-28" value="GraphQL" style="text;html=1;align=center;verticalAlign=middle;resizable=0;points=[];autosize=1;rotation=90;dashed=1;dashPattern=12 12;" vertex="1" parent="1">
          <mxGeometry x="279" y="170" width="70" height="30" as="geometry" />
        </mxCell>
        <mxCell id="krKL_mxPOFj_XPniPA5U-29" value="&lt;font style=&quot;font-size: 11px;&quot;&gt;Gateway API&lt;/font&gt;" style="text;html=1;align=center;verticalAlign=middle;resizable=0;points=[];autosize=1;dashed=1;dashPattern=12 12;" vertex="1" parent="1">
          <mxGeometry x="319" y="155" width="90" height="30" as="geometry" />
        </mxCell>
        <mxCell id="krKL_mxPOFj_XPniPA5U-30" value="&lt;font style=&quot;font-size: 11px;&quot;&gt;Queries&lt;/font&gt;" style="text;html=1;align=center;verticalAlign=middle;resizable=0;points=[];autosize=1;dashed=1;dashPattern=12 12;" vertex="1" parent="1">
          <mxGeometry x="334" y="190" width="60" height="30" as="geometry" />
        </mxCell>
        <mxCell id="krKL_mxPOFj_XPniPA5U-31" value="Data&lt;br&gt;Indexation" style="text;html=1;align=center;verticalAlign=middle;resizable=0;points=[];autosize=1;strokeColor=none;fillColor=none;dashed=1;dashPattern=12 12;" vertex="1" parent="1">
          <mxGeometry x="309" y="230" width="80" height="40" as="geometry" />
        </mxCell>
        <mxCell id="krKL_mxPOFj_XPniPA5U-32" value="DB" style="shape=cylinder3;whiteSpace=wrap;html=1;boundedLbl=1;backgroundOutline=1;size=15;fillColor=#dae8fc;strokeColor=#6c8ebf;" vertex="1" parent="1">
          <mxGeometry x="459" y="170" width="90" height="80" as="geometry" />
        </mxCell>
        <mxCell id="awBEOhFoFF5UymR4_-2E-9" value="" style="shape=flexArrow;endArrow=classic;html=1;rounded=0;endWidth=7;endSize=2;width=6;fillColor=#ffe6cc;strokeColor=#d79b00;" edge="1" parent="1">
          <mxGeometry width="50" height="50" relative="1" as="geometry">
            <mxPoint x="378.5" y="160" as="sourcePoint" />
            <mxPoint x="378.5" y="140" as="targetPoint" />
            <Array as="points">
              <mxPoint x="378.5" y="130" />
            </Array>
          </mxGeometry>
        </mxCell>
        <mxCell id="awBEOhFoFF5UymR4_-2E-10" value="" style="shape=flexArrow;endArrow=classic;html=1;rounded=0;endWidth=6;endSize=3.165;width=6;fillColor=#ffe6cc;strokeColor=#d79b00;" edge="1" parent="1">
          <mxGeometry width="50" height="50" relative="1" as="geometry">
            <mxPoint x="389" y="180" as="sourcePoint" />
            <mxPoint x="389" y="300" as="targetPoint" />
          </mxGeometry>
        </mxCell>
        <mxCell id="HVcm6iyR7VjEUGQc1Eu3-1" value="" style="shape=flexArrow;endArrow=classic;startArrow=classic;html=1;rounded=0;width=4;startSize=3.67;endWidth=6;endSize=3.67;startWidth=6;fillColor=#dae8fc;strokeColor=#6c8ebf;" edge="1" parent="1">
          <mxGeometry width="100" height="100" relative="1" as="geometry">
            <mxPoint x="500" y="160" as="sourcePoint" />
            <mxPoint x="410" y="110" as="targetPoint" />
            <Array as="points">
              <mxPoint x="500" y="110" />
            </Array>
          </mxGeometry>
        </mxCell>
        <mxCell id="HVcm6iyR7VjEUGQc1Eu3-3" value="" style="shape=flexArrow;endArrow=classic;html=1;rounded=0;endWidth=7;endSize=2;width=6;fillColor=#ffe6cc;strokeColor=#d79b00;" edge="1" parent="1">
          <mxGeometry width="50" height="50" relative="1" as="geometry">
            <mxPoint x="388.5" y="160" as="sourcePoint" />
            <mxPoint x="388.5" y="140" as="targetPoint" />
            <Array as="points">
              <mxPoint x="388.5" y="130" />
            </Array>
          </mxGeometry>
        </mxCell>
        <mxCell id="HVcm6iyR7VjEUGQc1Eu3-4" value="" style="shape=flexArrow;endArrow=classic;html=1;rounded=0;endWidth=7.5;endSize=4.835;width=5;fillColor=#ffe6cc;strokeColor=#d79b00;" edge="1" parent="1">
          <mxGeometry width="50" height="50" relative="1" as="geometry">
            <mxPoint x="409" y="230" as="sourcePoint" />
            <mxPoint x="449" y="230" as="targetPoint" />
            <Array as="points">
              <mxPoint x="409" y="230" />
            </Array>
          </mxGeometry>
        </mxCell>
        <mxCell id="HVcm6iyR7VjEUGQc1Eu3-6" value="" style="shape=flexArrow;endArrow=classic;html=1;rounded=0;endWidth=6;endSize=4.335;width=6;fillColor=#ffe6cc;strokeColor=#d79b00;" edge="1" parent="1">
          <mxGeometry width="50" height="50" relative="1" as="geometry">
            <mxPoint x="449" y="204.75" as="sourcePoint" />
            <mxPoint x="409" y="204.75" as="targetPoint" />
            <Array as="points" />
          </mxGeometry>
        </mxCell>
      </root>
    </mxGraphModel>
  </diagram>
</mxfile>
